<?xml version="1.0" encoding="UTF-8"?>
<svg width="400px" height="400px" viewBox="0 0 400 400" version="1.1" xmlns="http://www.w3.org/2000/svg" xmlns:xlink="http://www.w3.org/1999/xlink">
    <!-- Generator: Sketch 46.1 (44463) - http://www.bohemiancoding.com/sketch -->
    <title>grid copy</title>
    <desc>Created with Sketch.</desc>
    <defs>
        <linearGradient x1="0%" y1="0%" x2="100%" y2="1.11022302e-14%" id="linearGradient-1">
            <stop stop-color="#F0F1F2" offset="0%"></stop>
            <stop stop-color="#D6D8DA" offset="100%"></stop>
        </linearGradient>
        <linearGradient x1="0%" y1="50%" x2="100%" y2="50%" id="linearGradient-2">
            <stop stop-color="#F0F1F2" offset="0%"></stop>
            <stop stop-color="#BABEC2" offset="100%"></stop>
        </linearGradient>
    </defs>
    <g id="Page-1" stroke="none" stroke-width="1" fill="none" fill-rule="evenodd">
        <g id="grid-copy" fill-rule="nonzero">
            <g id="Group">
                <rect id="Rectangle-Copy-9" fill="#F0F1F2" x="0" y="360" width="400" height="1"></rect>
                <rect id="Rectangle-Copy-8" fill="#F0F1F2" x="0" y="320" width="400" height="1"></rect>
                <rect id="Rectangle-Copy-7" fill="#F0F1F2" x="0" y="280" width="400" height="1"></rect>
                <rect id="Rectangle-Copy-6" fill="#F0F1F2" x="0" y="240" width="400" height="1"></rect>
                <rect id="Rectangle-Copy-4" fill="#F0F1F2" x="0" y="160" width="400" height="1"></rect>
                <rect id="Rectangle-Copy-3" fill="#F0F1F2" x="0" y="120" width="400" height="1"></rect>
                <rect id="Rectangle-Copy-2" fill="#F0F1F2" x="0" y="80" width="400" height="1"></rect>
                <rect id="Rectangle-Copy" fill="#F0F1F2" x="0" y="39" width="400" height="1"></rect>
                <rect id="Rectangle-Copy-5" fill="url(#linearGradient-1)" x="0" y="200" width="400" height="1"></rect>
                <rect id="Rectangle" fill="url(#linearGradient-2)" x="0" y="0" width="400" height="1"></rect>
            </g>
            <g id="Group-Copy" transform="translate(180.500000, 200.000000) rotate(-90.000000) translate(-180.500000, -200.000000) translate(-19.500000, 19.500000)">
                <rect id="Rectangle-Copy-9" fill="#F0F1F2" x="0" y="360" width="400" height="1"></rect>
                <rect id="Rectangle-Copy-8" fill="#F0F1F2" x="0" y="320" width="400" height="1"></rect>
                <rect id="Rectangle-Copy-7" fill="#F0F1F2" x="0" y="280" width="400" height="1"></rect>
                <rect id="Rectangle-Copy-6" fill="#F0F1F2" x="0" y="240" width="400" height="1"></rect>
                <rect id="Rectangle-Copy-4" fill="#F0F1F2" x="0" y="160" width="400" height="1"></rect>
                <rect id="Rectangle-Copy-3" fill="#F0F1F2" x="1.13686838e-13" y="120" width="400" height="1"></rect>
                <rect id="Rectangle-Copy-2" fill="#F0F1F2" x="1.13686838e-13" y="80" width="400" height="1"></rect>
                <rect id="Rectangle-Copy" fill="#F0F1F2" x="1.13686838e-13" y="40" width="400" height="1"></rect>
                <rect id="Rectangle-Copy-5" fill="#E3E5E6" x="0" y="200" width="400" height="1"></rect>
                <rect id="Rectangle" fill="#BABEC2" x="1.13686838e-13" y="5.68434188e-14" width="400" height="1"></rect>
            </g>
        </g>
    </g>
</svg>