<?xml version="1.0" encoding="UTF-8" standalone="no"?>
<svg width="400px" height="400px" viewBox="0 0 400 400" version="1.1" xmlns="http://www.w3.org/2000/svg" xmlns:xlink="http://www.w3.org/1999/xlink">
    <!-- Generator: Sketch 39.1 (31720) - http://www.bohemiancoding.com/sketch -->
    <title>grid</title>
    <desc>Created with Sketch.</desc>
    <defs></defs>
    <g id="Page-1" stroke="none" stroke-width="1" fill="none" fill-rule="evenodd">
        <g id="grid">
            <g id="Group">
                <rect id="Rectangle-Copy-9" fill="#F0F1F2" x="0" y="360" width="400" height="1"></rect>
                <rect id="Rectangle-Copy-8" fill="#F0F1F2" x="0" y="320" width="400" height="1"></rect>
                <rect id="Rectangle-Copy-7" fill="#F0F1F2" x="0" y="280" width="400" height="1"></rect>
                <rect id="Rectangle-Copy-6" fill="#F0F1F2" x="0" y="240" width="400" height="1"></rect>
                <rect id="Rectangle-Copy-5" fill="#D6D8DA" x="0" y="200" width="400" height="1"></rect>
                <rect id="Rectangle-Copy-4" fill="#F0F1F2" x="0" y="160" width="400" height="1"></rect>
                <rect id="Rectangle-Copy-3" fill="#F0F1F2" x="0" y="120" width="400" height="1"></rect>
                <rect id="Rectangle-Copy-2" fill="#F0F1F2" x="0" y="80" width="400" height="1"></rect>
                <rect id="Rectangle-Copy" fill="#F0F1F2" x="0" y="40" width="400" height="1"></rect>
                <rect id="Rectangle" fill="#D6D8DA" x="0" y="0" width="400" height="1"></rect>
            </g>
            <g id="Group-Copy" transform="translate(180.500000, 200.000000) rotate(270.000000) translate(-180.500000, -200.000000) translate(-19.500000, 19.500000)">
                <rect id="Rectangle-Copy-9" fill="#F0F1F2" x="0" y="360" width="400" height="1"></rect>
                <rect id="Rectangle-Copy-8" fill="#F0F1F2" x="0" y="320" width="400" height="1"></rect>
                <rect id="Rectangle-Copy-7" fill="#F0F1F2" x="0" y="280" width="400" height="1"></rect>
                <rect id="Rectangle-Copy-6" fill="#F0F1F2" x="0" y="240" width="400" height="1"></rect>
                <rect id="Rectangle-Copy-5" fill="#D6D8DA" x="0" y="200" width="400" height="1"></rect>
                <rect id="Rectangle-Copy-4" fill="#F0F1F2" x="0" y="160" width="400" height="1"></rect>
                <rect id="Rectangle-Copy-3" fill="#F0F1F2" x="0" y="120" width="400" height="1"></rect>
                <rect id="Rectangle-Copy-2" fill="#F0F1F2" x="0" y="80" width="400" height="1"></rect>
                <rect id="Rectangle-Copy" fill="#F0F1F2" x="0" y="40" width="400" height="1"></rect>
                <rect id="Rectangle" fill="#D6D8DA" x="0" y="0" width="400" height="1"></rect>
            </g>
        </g>
    </g>
</svg>